<?xml version="1.0" encoding="iso-8859-1"?>
<!-- Generator: Adobe Illustrator 19.0.0, SVG Export Plug-In . SVG Version: 6.00 Build 0)  -->
<svg xmlns="http://www.w3.org/2000/svg" xmlns:xlink="http://www.w3.org/1999/xlink" version="1.1" id="Layer_1" x="0px" y="0px" viewBox="0 0 512 512" style="enable-background:new 0 0 512 512;" xml:space="preserve" width="512" height="512">
<g id="XMLID_1880_">
	<g id="XMLID_621_">
		<path id="XMLID_622_" d="M224.93,358.91c-1.86,1.859-2.93,4.439-2.93,7.069c0,2.641,1.069,5.21,2.93,7.07    c1.86,1.87,4.44,2.93,7.07,2.93s5.21-1.06,7.069-2.93c1.86-1.86,2.931-4.44,2.931-7.07s-1.07-5.21-2.931-7.069    c-1.859-1.86-4.439-2.931-7.069-2.931S226.79,357.05,224.93,358.91z"/>
		<path id="XMLID_1486_" d="M458,403c-2.63,0-5.21,1.069-7.07,2.93S448,410.37,448,413s1.069,5.21,2.93,7.069    c1.86,1.86,4.44,2.931,7.07,2.931s5.21-1.07,7.069-2.931C466.93,418.21,468,415.63,468,413s-1.07-5.21-2.931-7.07    C463.21,404.069,460.63,403,458,403z"/>
		<path id="XMLID_1777_" d="M502,266h-44v-83.895c0-23.259-16.491-43.745-39.213-48.712l-32.685-7.146    c11.227-9.629,18.36-23.901,18.36-39.817V52.462C404.462,23.534,380.928,0,352,0s-52.462,23.534-52.462,52.462v33.969    c0,15.895,7.115,30.151,18.317,39.78l-32.678,7.167C262.477,138.358,246,158.842,246,182.083V226h-54c-5.522,0-10,4.478-10,10v30    h-70v-28h42c5.522,0,10-4.478,10-10V120c0-5.522-4.478-10-10-10H10c-5.522,0-10,4.478-10,10v108c0,5.522,4.478,10,10,10h42v28H10    c-5.522,0-10,4.478-10,10v48c0,5.522,4.478,10,10,10h34v168c0,5.522,4.478,10,10,10h404c5.522,0,10-4.478,10-10v-49    c0-5.522-4.478-10-10-10s-10,4.478-10,10v39H64V375.983h128c5.522,0,10-4.478,10-10s-4.478-10-10-10H64V334h384v39    c0,5.522,4.478,10,10,10s10-4.478,10-10v-39h34c5.522,0,10-4.478,10-10v-48C512,270.478,507.522,266,502,266z M319.538,79.346    h13.76c18.475,0,36.122-5.377,51.164-15.381v22.466c0,17.899-14.563,32.462-32.462,32.462s-32.462-14.563-32.462-32.462V79.346z     M352,138.893c3.114,0,6.161-0.288,9.127-0.811l-9.25,20.828l-9.271-20.875C345.657,138.588,348.793,138.893,352,138.893z M352,20    c13.662,0,25.371,8.488,30.154,20.463c-13.399,12.201-30.613,18.883-48.856,18.883h-13.76v-6.884    C319.538,34.563,334.101,20,352,20z M266,182.083c0-13.919,9.868-26.187,23.464-29.17l34.506-7.569l18.769,42.261    c1.604,3.613,5.187,5.941,9.14,5.941s7.535-2.328,9.14-5.941l18.771-42.266l34.728,7.593C428.123,155.907,438,168.176,438,182.105    V266H330v-30c0-5.522-4.478-10-10-10h-54V182.083z M202,246h108v20h-54h-54V246z M20,130h124v88h-32.157    c-1.545-15.102-14.339-26.923-29.843-26.923S53.703,202.898,52.157,218H20V130z M72,221.077c0-5.514,4.486-10,10-10    s10,4.486,10,10V266H72V221.077z M492,314H20v-28h472V314z"/>
	</g>
</g>















</svg>
